<?xml version="1.0" encoding="UTF-8"?>
<svg width="160px" height="40px" viewBox="0 0 160 40" version="1.1" xmlns="http://www.w3.org/2000/svg" xmlns:xlink="http://www.w3.org/1999/xlink">
    <!-- Generator: Sketch 55.2 (78181) - https://sketchapp.com -->
    <title>logo</title>
    <desc>Created with Sketch.</desc>
    <g id="Ew-Colors" stroke="none" stroke-width="1" fill="none" fill-rule="evenodd">
        <g id="1-Home" transform="translate(-638.000000, -24.000000)" fill="#303A4E">
            <path d="M715.053238,52.8502703 C715.794319,53.1178378 716.602427,53.1367568 717.387292,53.0718919 C717.660265,53.0491892 717.944048,53.0124324 718.169994,52.8583784 C718.377021,52.7172973 718.511616,52.4945946 718.639184,52.2783784 C719.089994,51.5167568 719.540265,50.7545946 719.991075,49.9924324 C720.071616,49.8562162 720.151616,49.6794595 720.059184,49.5508108 C720.006211,49.4767568 719.911075,49.4464865 719.822427,49.4254054 C719.101346,49.2572973 718.344589,49.3989189 717.607832,49.3291892 C716.870535,49.2589189 716.058643,48.8605405 715.920265,48.132973 C715.845129,47.7405405 715.985129,47.3421622 716.129454,46.9686486 C716.474319,46.0762162 716.85594,45.1989189 717.243508,44.3237838 C718.462967,41.5691892 719.742967,38.8416216 721.081886,36.1432432 C721.163508,35.9778378 721.251616,35.8054054 721.401886,35.6983784 C721.578643,35.5713514 721.809454,35.5567568 722.026211,35.5464865 C722.809454,35.5097297 723.8554,35.6264865 724.638643,35.5891892 C724.862967,35.5789189 725.097562,35.5648649 725.291075,35.4518919 C725.507292,35.3259459 725.638643,35.0972973 725.760265,34.8789189 C726.143508,34.1891892 726.512697,33.4621622 726.896481,32.7718919 C726.992697,32.5989189 727.086211,32.3718919 726.961886,32.2178378 C726.907832,32.1502703 726.827832,32.1183784 726.740265,32.1043243 C726.672697,32.0940541 726.601346,32.0935135 726.534319,32.0956757 C725.707832,32.1172973 724.633778,32.0216216 723.807292,32.0427027 C723.664589,32.0464865 723.508913,32.0464865 723.3954,31.96 C723.168373,31.7859459 723.267292,31.4291892 723.389454,31.1713514 C723.971075,29.9367568 724.586211,28.7183784 725.233238,27.5178378 C725.357562,27.287027 725.454859,26.9405405 725.22567,26.8135135 C725.149994,26.7712612 725.059184,26.7708108 724.972157,26.7712612 C724.289454,26.7762162 723.606751,26.7805405 722.924048,26.7854054 C722.577562,26.7881081 722.208913,26.7972973 721.920265,26.9886486 C721.660805,27.1616216 721.510535,27.4535135 721.371075,27.7324324 L719.586211,31.3108108 C719.451616,31.5805405 719.297021,31.8702703 719.021346,31.992973 C718.673778,32.1481081 718.258102,32.0713514 717.892157,32.0508108 C717.421886,32.0254054 716.951075,32.0378378 716.480805,32.0324324 C716.152697,32.0286486 715.752157,32.0048649 715.511616,32.272973 C715.22567,32.5908108 715.046211,33.1318919 714.847292,33.5097297 C714.654859,33.8762162 714.454319,34.2648649 714.269994,34.6454054 C714.207292,34.7756757 713.700265,35.5983784 714.098102,35.5864865 L714.413778,35.5767568 C715.1154,35.5556757 715.805129,35.552973 716.50567,35.5827027 C716.697562,35.5902703 716.922967,35.5562162 717.087292,35.6816216 C717.350535,35.8832432 716.769994,36.7918919 716.666751,37.02 C716.417021,37.5691892 716.160265,38.1151351 715.898102,38.6594595 C715.36567,39.7659459 714.811616,40.8621622 714.252697,41.9567568 C713.623508,43.1881081 712.984589,44.4254054 712.588913,45.7502703 C712.192697,47.0751351 712.050535,48.5097297 712.426751,49.8410811 C712.802427,51.1718919 713.752157,52.3816216 715.053238,52.8502703 L715.053238,52.8502703 Z M695.468913,53.0562162 C696.022427,53.0832432 696.647292,53.092973 697.201886,53.1064865 C698.647292,53.1394595 698.471616,53.2113514 699.229994,52.0216216 C700.141346,50.5913514 701.004048,49.1308108 701.888913,47.6837838 C703.198643,45.5416216 704.558102,43.4291892 705.887292,41.2994595 C707.632157,38.5037838 709.429454,35.7443243 711.274319,33.0151351 C711.383508,32.8535135 711.487832,32.687027 711.580265,32.5162162 C711.662967,32.3643243 711.569994,32.1605405 711.4154,32.1281081 C711.351616,32.1151351 711.286751,32.0972973 711.222427,32.0972973 C709.982427,32.0956757 708.911616,32.0956757 707.671616,32.095134 C707.272157,32.0945946 706.994859,32.2864865 706.801886,32.6259459 C706.624589,32.9378378 706.434859,33.2427027 706.259724,33.5551351 C705.622427,34.6935135 705.024048,35.8551351 704.347292,36.9686486 C702.688373,39.7010811 701.027832,42.4318919 699.49594,45.2378378 C699.426211,45.3648649 699.301346,45.6372973 699.181346,45.7227027 C698.793238,45.9994595 698.898102,44.8864865 698.905129,44.7697297 C698.929454,44.367027 698.942427,43.9637838 698.961346,43.5605405 L699.072697,41.1443243 C699.193778,38.5145946 699.280805,35.8837838 699.560265,33.2654054 C699.588373,33.007027 699.588373,32.7437838 699.579724,32.4837838 C699.572697,32.2594595 699.437562,32.1145946 699.212157,32.1081081 C698.723508,32.0945946 698.233778,32.1037838 697.744589,32.1037838 C697.2554,32.0994595 696.526751,32.0908108 696.038102,32.1032432 C695.817562,32.1091892 695.710535,32.2362162 695.686751,32.4762162 C695.589454,33.4594595 695.598102,34.4421622 695.531075,35.4281081 C695.459184,36.4891892 695.390535,37.5508108 695.324048,38.612973 C695.192157,40.7372973 695.072157,42.8616216 694.964048,44.9875676 C694.885129,46.5394595 694.827832,48.0902703 694.767292,49.6432432 C694.733778,50.4962162 694.699184,51.3491892 694.663508,52.2021622 C694.629994,52.967027 694.678643,53.0189189 695.468913,53.0562162 L695.468913,53.0562162 Z M729.17479,46.4497297 C729.171616,47.0594595 729.282967,47.6513514 729.510535,48.2059459 C729.928373,49.2259459 730.747292,49.9140541 731.874319,49.7254054 C733.132157,49.5145946 734.320805,48.4189189 735.152697,47.5021622 C736.324589,46.2124324 737.277021,44.7308108 738.014319,43.1464865 C738.390535,42.34 738.712157,41.507027 738.986211,40.6589189 C739.2754,39.7637838 739.570535,38.8318919 739.55594,37.8794595 C739.531616,36.3367568 738.532697,34.7648649 736.854859,35.0508108 C735.488373,35.2837838 734.258102,36.3037838 733.299724,37.2594595 C733.291075,37.2681081 733.282427,37.2762162 733.274319,37.2848649 C731.051616,39.5151351 729.418643,42.6037838 729.199724,45.7918919 C729.185129,46.0108108 729.176481,46.2302703 729.17479,46.4497297 L729.17479,46.4497297 Z M726.708373,40.4291892 C727.481346,38.8016216 728.37594,37.2437838 729.538102,35.8686486 C730.740805,34.4448649 732.093238,33.1594595 733.687832,32.1708108 C735.062967,31.3178378 736.594859,31.0102703 738.191075,31.1524324 C739.458102,31.2654054 740.564048,31.8194595 741.511616,32.6724324 C741.680805,32.8248649 741.83594,32.9940541 741.997021,33.1556757 C743.194859,34.3578378 743.682427,36.0459459 743.718102,37.7216216 C743.728373,38.2356757 743.697021,38.7481081 743.629994,39.2459459 C743.194859,42.4740541 741.583508,45.4556757 739.770535,48.1075676 C738.809994,49.512973 737.620805,50.7448649 736.281346,51.7891892 C735.15594,52.667027 733.960265,53.4621622 732.508913,53.7848649 C731.753778,53.952973 731.019184,53.9697297 730.286211,53.8054054 C729.224589,53.5675676 728.256481,53.1086486 727.400805,52.4216216 C726.828373,51.9621622 726.422967,51.3762162 726.0754,50.7443243 C725.513238,49.7194595 725.340805,48.5972973 725.272157,47.4491892 C725.205129,46.332973 725.38567,45.2394595 725.532697,44.1410811 C725.708373,42.8335135 726.144589,41.6140541 726.708373,40.4291892 L726.708373,40.4291892 Z M679.431616,40.1864865 C680.460805,40.3594595 681.492157,40.5167568 682.564589,40.5772973 C683.686751,40.5545946 684.803508,40.3713514 685.871075,39.9189189 C686.722967,39.5578378 687.338643,38.9410811 687.757021,38.1437838 C688.180805,37.3362162 688.180265,36.4681081 687.654859,35.7259459 C686.977562,34.7697297 685.983508,34.3843243 684.820265,34.5945946 C683.810535,34.7762162 682.887292,35.2032432 682.100265,35.8627027 C680.79594,36.9556757 679.944048,38.3783784 679.26567,39.9145946 C679.198643,40.0659459 679.27594,40.16 679.431616,40.1864865 L679.431616,40.1864865 Z M674.294859,48.0362162 C673.570535,45.8178378 673.568913,43.607027 674.26567,41.3983784 C674.897021,39.3940541 675.768913,37.4913514 677.088913,35.8443243 C678.091616,34.592973 679.230535,33.4372973 680.566211,32.5405405 C682.304048,31.3735135 684.353778,30.8454054 686.441886,31.092973 C687.380265,31.2043243 688.263508,31.452973 689.049994,31.9881081 C689.783508,32.4881081 690.354319,33.1886486 690.731075,33.9897297 C692.249454,37.2151351 690.893238,40.9145946 688.050535,42.8032432 C686.571075,43.7864865 684.894859,44.1778378 683.127832,44.2016216 C682.801886,44.2059459 682.474859,44.2021622 682.237021,44.2021622 C681.074319,44.1254054 679.998643,44.0859459 678.926751,43.9562162 C677.866211,43.8286486 677.832697,43.8848649 677.816481,44.9562162 C677.807292,45.6091892 677.811616,46.2664865 678.013238,46.8962162 C678.364589,47.9983784 678.970535,48.8583784 680.107832,49.3178378 C681.990535,50.0778378 683.839184,50.1081081 685.711075,49.3 C686.821886,48.8205405 687.926211,48.3405405 688.8954,47.6 C688.989454,47.5281081 689.128913,47.3940541 689.256481,47.3383784 C689.287292,47.3248649 689.317562,47.3162162 689.34567,47.3140541 C689.457562,47.3043243 689.570535,47.4118919 689.568373,47.5237838 C689.549994,48.3983784 689.531616,49.272973 689.513238,50.147027 C689.507832,50.3859459 689.499184,50.5735135 689.462427,50.7362162 C689.432697,51.1232432 689.248373,51.4097297 688.853238,51.6394595 C687.666211,52.3302703 686.462427,52.9918919 685.156481,53.4178378 C683.307832,54.0205405 681.392157,54.14 679.57594,53.4486486 C677.020805,52.4772973 675.169994,50.7183784 674.294859,48.0362162 L674.294859,48.0362162 Z M796.901886,49.192973 C796.711616,49.1708108 796.51594,49.1951351 796.322427,49.2027027 C795.474319,49.2367568 794.62567,49.2859459 793.807832,48.9762162 C792.712697,48.5610811 793.138643,46.8594595 793.914859,45.087027 C794.692697,43.3124324 795.820805,41.4681081 796.128913,40.772973 C797.110535,38.5551351 798.320265,34.9205405 796.438643,32.8837838 C795.146211,31.4864865 793.208913,30.9659459 791.42567,31.6356757 C790.447292,32.0037838 789.491616,32.4205405 788.648373,33.0572973 C788.499184,33.1702703 788.321886,33.247027 788.157021,33.3394595 C788.070535,33.1086486 788.238643,32.9308108 788.300265,32.7291892 C788.449454,32.2448649 788.268913,31.9637838 787.756481,31.9481081 C786.876481,31.9210811 785.994319,31.9335135 785.113238,31.9156757 C784.812157,31.9097297 784.628913,32.0313514 784.502967,32.3 C784.157021,33.0378378 783.813238,33.7778378 783.440265,34.5027027 C782.179184,36.9578378 781.026751,39.4697297 779.739184,41.9113514 C778.456481,44.347027 777.264589,46.8264865 776.084589,49.3210811 C775.929454,49.6502703 775.773238,49.9794595 775.616481,50.3081081 C775.387292,50.7913514 775.141346,51.2659459 774.904048,51.7454054 C774.780805,51.9956757 774.188913,52.8524324 774.518643,53.0616216 C774.748913,53.2064865 775.154319,53.1551351 775.413778,53.1486486 C776.271075,53.1264865 777.132697,53.0940541 777.991075,53.0989189 C778.180805,53.0994595 778.419184,53.1286486 778.57594,53.0005405 C778.837021,52.7875676 778.951075,52.287027 779.082967,51.9951351 C779.089994,51.9783784 779.098102,51.9605405 779.10567,51.9437838 C780.237021,49.4362162 781.559184,47.0302703 782.809454,44.5827027 C784.518643,41.2367568 786.449994,37.0843243 790.100265,35.4627027 C790.840805,35.1340541 792.143508,34.8286486 792.872697,35.3221622 C793.329994,35.6318919 793.4954,36.2486486 793.418102,36.7951351 C793.286211,37.7313514 792.64567,38.7102703 792.182427,39.5178378 C791.107832,41.3891892 790.246211,43.3621622 789.3954,45.3389189 C788.687292,46.9821622 788.556481,48.667027 789.118102,50.3962162 C789.583508,51.8291892 790.870535,53.1054054 792.769454,53.1427027 C793.588373,53.1589189 794.393238,53.1318919 795.199724,52.9810811 C795.463508,52.9313514 795.611075,52.812973 795.710535,52.5989189 C796.164048,51.6232432 796.612697,50.6448649 797.060805,49.6659459 C797.087292,49.6081081 797.106751,49.5416216 797.107832,49.4783784 C797.111616,49.3351351 797.040265,49.2091892 796.901886,49.192973 L796.901886,49.192973 Z M750.3554,53.3172973 C752.730535,53.4556757 754.874319,52.8475676 756.713238,51.2913514 C756.937562,51.1021622 757.161346,50.9113514 757.390535,50.7275676 C757.656481,50.5156757 757.774319,50.5286486 757.907832,50.8351351 C758.171616,51.4432432 758.509994,51.9827027 759.036481,52.4064865 C762.836481,55.4675676 768.299184,52.9172973 770.42567,49.1118919 C772.398102,45.58 774.287292,42 776.042967,38.3545946 C776.989994,36.3875676 778.027832,34.4643243 779.027832,32.5227027 C779.152697,32.2789189 779.093778,32.1275676 778.837562,32.1178378 C778.18567,32.0918919 777.533238,32.0751351 776.880805,32.0605405 C776.261346,32.0464865 775.640805,32.0383784 775.021346,32.0286486 C774.734319,32.0248649 774.544589,32.1356757 774.413778,32.4167568 C774.125129,33.0378378 773.784048,33.632973 773.487832,34.2508108 C772.106751,37.132973 770.722427,40.0135135 769.362967,42.9059459 C768.666211,44.387027 767.879724,45.8108108 766.907832,47.1281081 C766.480265,47.7081081 766.010535,48.2486486 765.457021,48.7140541 C764.428913,49.5783784 762.4954,49.7183784 761.744048,48.4189189 C761.274319,47.6048649 761.370535,46.4372973 761.613778,45.5610811 C761.928373,44.427027 762.308373,43.3167568 762.827832,42.2605405 C763.663508,40.5627027 764.402967,38.8243243 765.129454,37.0767568 C765.742427,35.6021622 766.443508,34.1648649 767.102427,32.7091892 C767.222967,32.4427027 767.121346,32.1767568 766.851616,32.0762162 C766.702427,32.0216216 766.537021,31.9875676 766.379184,31.9859459 C765.464589,31.98 764.550535,31.9951351 763.636481,31.9831623 C763.298643,31.9794595 763.077562,32.1081081 762.949994,32.4151351 C762.887832,32.5659459 762.817562,32.712973 762.751616,32.8621622 C762.121886,34.2951351 761.518102,35.74 760.85594,37.1572973 C759.723508,39.58 758.618643,42.0151351 757.380805,44.3886486 C756.851075,45.4048649 756.197021,46.3351351 755.558643,47.2772973 C755.268373,47.7048649 754.882427,48.0713514 754.520265,48.4459459 C753.157021,49.8551351 750.420265,50.0313514 749.8754,47.7589189 C749.617021,46.6772973 750.092697,45.5324324 750.460805,44.5291892 C750.870535,43.4135135 751.31594,42.3097297 751.827292,41.2362162 C752.851075,39.087027 753.874859,36.9378378 754.890535,34.7843243 C755.224589,34.0772973 755.538102,33.3594595 755.852697,32.6427027 C755.985129,32.3432432 755.917021,32.1886486 755.6154,32.1616216 C755.063508,32.1097297 754.509454,32.092973 753.998102,32.0637838 C753.530535,32.0637838 753.106211,32.0713514 752.681886,32.0616216 C752.35594,32.0540541 752.1754,32.1854054 751.998643,32.4827027 C750.518643,34.9848649 749.264589,37.6043243 747.998643,40.2151351 C747.058643,42.1524324 746.263508,44.1481081 745.767832,46.2578378 C745.351616,48.0259459 745.651616,50.107027 746.72567,51.6 C747.614859,52.8351351 748.8954,53.232973 750.3554,53.3172973 L750.3554,53.3172973 Z M660.809454,59.38 C660.747832,59.2378378 660.607832,59.1459459 660.453238,59.1454054 C657.003508,59.1254054 653.558102,59.1097297 650.108913,59.0978378 C646.846751,59.0854054 643.539724,59.0735135 640.287832,59.0654024 C640.157562,59.0648649 640.036481,59.1372973 639.976481,59.2535135 L638.039184,63.0108108 C637.919724,63.2421622 638.087832,63.5172973 638.348373,63.5172973 C646.139184,63.5172973 654.219184,63.5140541 662.010535,63.5097297 C662.291616,63.5097297 662.480805,63.2210811 662.368373,62.9627027 L660.809454,59.38 Z M792.076481,59.9378378 L790.405129,63.2308108 C790.332697,63.3740541 790.186211,63.4637838 790.02567,63.4627027 C789.037562,63.4578378 788.046751,63.4686486 787.05594,63.4686486 C766.091075,63.4848649 745.126751,63.5010811 724.166751,63.5097297 C708.360805,63.5172973 692.558102,63.5172973 676.752157,63.5216216 C675.772157,63.5216216 674.792157,63.5464865 673.816481,63.5010811 C671.67594,63.4108108 669.892697,62.6075676 668.629454,60.8156757 C668.084048,60.0362162 667.584048,59.2410811 667.178102,58.38 C666.612157,57.1659459 666.038102,55.9610811 665.447292,54.7594595 C664.484048,52.7951351 663.672157,50.7659459 662.868373,48.7362162 C662.331616,47.3708108 661.712157,46.0383784 661.138643,44.6854054 C661.007292,44.3778378 660.806211,44.2264865 660.461886,44.2545946 C660.072697,44.2832432 659.678643,44.2918919 659.288913,44.3248649 C658.186211,44.4189189 657.082967,44.5254054 655.976481,44.6156757 C655.639724,44.6405405 655.4554,44.8043243 655.320265,45.0994595 C654.598643,46.6740541 653.877021,48.2443243 653.130535,49.8021622 C652.692157,50.7124324 652.212697,51.6064865 651.753238,52.5043243 C651.544048,52.9140541 651.260805,53.1237838 650.748373,53.1151351 C649.477562,53.0827027 648.202427,53.1524324 646.931075,53.1356757 C645.72567,53.1194595 644.520265,53.0454054 643.310535,52.9924324 C642.991075,52.98 642.8554,52.7383784 643.031616,52.447027 C643.683508,51.3891892 644.139184,50.2286486 644.696481,49.1221622 C644.877021,48.7610811 645.122967,48.5767568 645.533238,48.5767568 C646.250535,48.5843243 646.967832,48.5681081 647.68567,48.5724324 C647.947832,48.5724324 648.206211,48.5972973 648.468913,48.6010811 C649.153238,48.612973 649.161886,48.612973 649.411616,48.0189189 C650.649994,45.1037838 652.002967,42.2459459 653.458643,39.432973 C654.17594,38.0427027 654.778643,36.5913514 655.451075,35.1772973 C655.857021,34.3243243 656.300265,33.4881081 656.722427,32.6427027 C656.878102,32.3313514 657.091616,32.1140541 657.464589,32.0940541 C658.604589,32.0318919 659.748373,32.0648649 660.888373,32.1264865 C661.117562,32.1389189 661.208373,32.327027 661.097562,32.5572973 C660.55594,33.6724324 659.990535,34.7751351 659.46567,35.8983784 C658.862427,37.1983784 658.292697,38.5183784 657.714859,39.8308108 C657.624589,40.0313514 657.698643,40.1713514 657.882967,40.1794595 C659.621346,40.2243243 661.339184,40.167027 663.012697,39.6135135 C664.525129,39.112973 665.849454,38.0918919 666.788373,36.812973 C667.25594,36.172973 667.637021,35.4637838 667.899724,34.7135135 C668.420265,33.2291892 668.334319,31.7 667.391075,30.4043243 C666.542427,29.2318919 665.18567,28.4318919 663.770535,28.2021622 C661.749454,27.8745946 659.666211,27.7637838 657.632697,27.8210811 C657.001346,27.8416216 656.345129,27.812973 655.693238,27.812973 C654.38567,27.7886486 653.077562,27.8583784 651.773778,27.8621622 C651.412697,27.8621622 651.052157,27.8583784 650.694859,27.8454054 C650.404048,27.8335135 650.309994,27.6610811 650.440805,27.3827027 C650.838643,26.5416216 651.28567,25.7302703 651.674859,24.8816216 C651.789994,24.627027 651.867832,24.2994595 652.167292,24.2010811 C652.839724,23.9794595 653.565129,24.0286486 654.266211,24.0205405 C655.008373,24.0162162 655.754859,24.0118919 656.500805,24.0081081 C657.968913,24 659.461346,24 660.908913,24 C661.511616,24 662.109994,24.0205405 662.708913,24.0535135 C664.373778,24.147027 666.054859,24.4097297 667.608913,25.032973 C669.019184,25.5989189 670.35594,26.5091892 671.179724,27.8091892 C672.159724,29.3502703 672.528913,31.252973 672.446751,33.0572973 C672.3154,35.8291892 671.347832,38.4454054 669.461886,40.4989189 C668.469454,41.5854054 667.148913,42.712973 665.718102,43.1481081 C664.997021,43.3648649 665.168913,43.4675676 665.390535,43.9637838 C666.513778,46.4978378 667.649454,49.0275676 668.781346,51.5567568 C669.609454,53.4064865 670.601886,55.1697297 671.557021,56.952973 C671.807292,57.4124324 672.102427,57.8427027 672.352157,58.3021622 C672.578102,58.7167568 672.938643,58.9005405 673.377562,58.9627027 C673.63594,58.9989189 673.898102,58.9989189 674.160805,58.9989189 C684.93594,59.0324324 695.711075,59.0562162 706.486751,59.0978378 C715.301886,59.1302703 724.117562,59.1837838 732.933238,59.2286486 L732.933238,59.1913514 C739.202427,59.2248649 745.471616,59.2654054 751.740805,59.2902703 C763.331616,59.3356757 774.927292,59.3686486 786.518102,59.4135135 C787.900265,59.4162162 790.640265,59.4405405 791.787292,59.4605405 C792.029994,59.4648649 792.183508,59.72 792.076481,59.9378378 L792.076481,59.9378378 Z" id="logo"></path>
        </g>
    </g>
</svg>